<?xml version="1.0" encoding="UTF-8"?>
<svg id="Akordion_x5F_Pfeil_x5F_close" xmlns="http://www.w3.org/2000/svg" version="1.1" viewBox="0 0 85.04 85.04">
  <!-- Generator: Adobe Illustrator 29.4.0, SVG Export Plug-In . SVG Version: 2.1.0 Build 152)  -->
  <path d="M42,18.13c-13.25,0-24,10.75-24,24,0,11.26,7.75,20.7,18.2,23.29v-15.96h-4.95v-7.33h4.95v-3.16c0-8.17,3.7-11.95,11.72-11.95,1.52,0,4.14.3,5.22.6v6.65c-.57-.06-1.55-.09-2.77-.09-3.94,0-5.46,1.49-5.46,5.37v2.59h7.84l-1.35,7.33h-6.49v16.49c11.88-1.44,21.09-11.55,21.09-23.82,0-13.25-10.75-24-24-24Z"/>
</svg>