<?xml version="1.0" encoding="UTF-8"?>
<svg id="Akordion_x5F_Pfeil_x5F_close" xmlns="http://www.w3.org/2000/svg" version="1.1" viewBox="0 0 85.04 85.04">
  <!-- Generator: Adobe Illustrator 29.4.0, SVG Export Plug-In . SVG Version: 2.1.0 Build 152)  -->
  <path d="M42.01,22.37c6.41,0,7.17.03,9.69.14,2.34.1,3.61.5,4.45.82,1.12.43,1.92.96,2.76,1.79.84.84,1.36,1.64,1.79,2.76.33.84.72,2.12.82,4.45.11,2.53.14,3.29.14,9.69s-.03,7.17-.14,9.69c-.1,2.34-.5,3.61-.82,4.45-.43,1.12-.96,1.92-1.79,2.76s-1.64,1.36-2.76,1.79c-.84.33-2.12.72-4.45.83-2.53.11-3.29.14-9.69.14s-7.17-.03-9.69-.14c-2.34-.1-3.61-.5-4.45-.83-1.12-.43-1.92-.96-2.76-1.79-.84-.84-1.36-1.64-1.79-2.76-.33-.84-.72-2.12-.83-4.45-.11-2.53-.14-3.29-.14-9.69s.03-7.17.14-9.69c.1-2.34.5-3.61.83-4.45.43-1.12.96-1.92,1.79-2.76.84-.84,1.64-1.36,2.76-1.79.84-.33,2.12-.72,4.45-.82,2.52-.11,3.28-.14,9.69-.14ZM42.01,18.04c-6.52,0-7.33.03-9.89.14-2.55.11-4.3.52-5.82,1.12-1.58.62-2.93,1.43-4.26,2.77-1.34,1.33-2.16,2.67-2.77,4.25-.59,1.53-1,3.27-1.12,5.82-.11,2.57-.14,3.38-.14,9.9s.03,7.33.14,9.89c.11,2.55.52,4.3,1.12,5.82.62,1.58,1.43,2.92,2.77,4.26,1.33,1.33,2.67,2.16,4.25,2.77,1.53.59,3.27,1,5.82,1.12,2.56.11,3.38.14,9.89.14s7.33-.03,9.89-.14c2.55-.11,4.3-.52,5.82-1.12,1.58-.61,2.92-1.43,4.25-2.77,1.33-1.33,2.16-2.67,2.77-4.25.59-1.53,1-3.27,1.12-5.82.11-2.56.14-3.38.14-9.89s-.03-7.33-.14-9.89c-.11-2.55-.52-4.3-1.12-5.82-.59-1.59-1.41-2.93-2.75-4.27-1.33-1.33-2.67-2.16-4.25-2.77-1.53-.59-3.27-1-5.82-1.12-2.57-.12-3.38-.15-9.9-.15Z"/>
  <path d="M42.01,29.72c-6.81,0-12.33,5.52-12.33,12.33s5.52,12.33,12.33,12.33,12.33-5.52,12.33-12.33-5.52-12.33-12.33-12.33ZM42.01,50.04c-4.42,0-8-3.58-8-8s3.58-8,8-8,8,3.58,8,8-3.58,8-8,8Z"/>
  <path d="M57.71,29.23c0,1.59-1.29,2.88-2.88,2.88s-2.88-1.29-2.88-2.88,1.29-2.88,2.88-2.88,2.88,1.29,2.88,2.88Z"/>
</svg>