<?xml version="1.0" encoding="UTF-8"?>
<svg id="Akordion_x5F_Pfeil_x5F_close" xmlns="http://www.w3.org/2000/svg" version="1.1" viewBox="0 0 85.04 85.04">
  <!-- Generator: Adobe Illustrator 29.4.0, SVG Export Plug-In . SVG Version: 2.1.0 Build 152)  -->
  <path d="M65.52,32.44s-.47-3.31-1.91-4.76c-1.83-1.91-3.87-1.92-4.81-2.03-6.71-.49-16.79-.49-16.79-.49h-.02s-10.08,0-16.79.49c-.94.11-2.98.12-4.81,2.03-1.44,1.45-1.9,4.76-1.9,4.76,0,0-.49,3.89-.49,7.77v3.64c0,3.88.48,7.77.48,7.77,0,0,.47,3.31,1.9,4.76,1.83,1.91,4.23,1.85,5.3,2.05,3.84.37,16.32.48,16.32.48,0,0,10.09-.02,16.8-.5.94-.11,2.98-.12,4.81-2.03,1.44-1.45,1.91-4.76,1.91-4.76,0,0,.48-3.88.48-7.77v-3.64c0-3.88-.48-7.77-.48-7.77ZM37.04,48.27v-13.49l12.97,6.77-12.97,6.72Z"/>
</svg>